<?xml version="1.0" encoding="UTF-8"?>
<svg id="Layer_1" data-name="Layer 1" xmlns="http://www.w3.org/2000/svg" viewBox="0 0 600 666.82">
  <defs>
    <style>
      .cls-1 {
        fill: none;
      }
    </style>
  </defs>
  <path class="cls-1" d="M208.22,99.78h116.89c13.75,0,24.89-11.14,24.89-24.89s-11.14-24.89-24.89-24.89h-116.89c-13.75,0-24.89,11.14-24.89,24.89s11.14,24.89,24.89,24.89Z"/>
  <path d="M50.23,138.27c1.66-12.2,12.12-21.61,24.77-21.61l71.08.03c13.45,19.96,36.26,33.08,62.14,33.08h116.89c25.88,0,48.69-13.13,62.14-33.08l71.08-.03,3.39.23c12.2,1.66,21.61,12.12,21.61,24.77l.23,3.39c1.65,12.19,12.1,21.58,24.74,21.58l3.45-.23c12.19-1.65,21.58-12.1,21.58-24.74l-.17-5.13c-2.64-39.03-35.13-69.87-74.83-69.87l-58.78.02C395.47,29.18,363.7,0,325.11,0h-116.89c-38.59,0-70.36,29.18-74.44,66.68l-58.78-.02-5.13.17C30.84,69.48,0,101.97,0,141.67v450.15l.17,5.13c2.64,39.03,35.13,69.87,74.83,69.87l100-.02c13.81,0,25-11.2,25-25l-.23-3.4c-1.66-12.2-12.12-21.6-24.77-21.6l-100,.02-3.39-.23c-12.2-1.66-21.61-12.12-21.61-24.77V141.67l.23-3.39ZM208.22,50h116.89c13.75,0,24.89,11.14,24.89,24.89s-11.14,24.89-24.89,24.89h-116.89c-13.75,0-24.89-11.14-24.89-24.89s11.14-24.89,24.89-24.89Z"/>
  <g>
    <path d="M599.83,269.87c-2.64-39.03-35.13-69.87-74.83-69.87h-216.67l-5.13.17c-39.03,2.64-69.87,35.13-69.87,74.83v316.67l.17,5.13c2.64,39.03,35.13,69.87,74.83,69.87h216.67l5.13-.17c39.03-2.64,69.87-35.13,69.87-74.83v-316.67l-.17-5.13ZM424.39,369.2c-.67-.87-1.78-1.59-3.33-2.18-.99-.39-3.18-.99-6.58-1.8s-5.77-1.58-7.13-2.31c-1.76-.92-3.08-2.07-3.95-3.44-.87-1.37-1.3-2.9-1.3-4.6,0-1.87.53-3.61,1.59-5.23,1.06-1.62,2.61-2.85,4.64-3.69,2.03-.84,4.29-1.26,6.78-1.26,2.74,0,5.16.44,7.25,1.32s3.7,2.18,4.83,3.89c1.13,1.71,1.73,3.66,1.82,5.82l-4.69.35c-.25-2.34-1.11-4.1-2.56-5.29-1.45-1.19-3.6-1.79-6.44-1.79s-5.11.54-6.47,1.63c-1.35,1.08-2.03,2.39-2.03,3.92,0,1.33.48,2.42,1.44,3.28.94.86,3.4,1.74,7.37,2.63,3.97.9,6.7,1.68,8.18,2.36,2.15.99,3.74,2.25,4.76,3.77,1.03,1.52,1.54,3.27,1.54,5.26s-.56,3.82-1.69,5.56c-1.13,1.74-2.74,3.09-4.85,4.06-2.11.97-4.48,1.45-7.12,1.45-3.34,0-6.15-.49-8.41-1.46-2.26-.97-4.03-2.44-5.32-4.4-1.29-1.96-1.96-4.17-2.03-6.64l4.61-.4c.22,1.85.73,3.37,1.53,4.55.8,1.18,2.04,2.14,3.72,2.87s3.57,1.1,5.67,1.1c1.87,0,3.51-.28,4.94-.83,1.43-.55,2.49-1.32,3.19-2.28.7-.97,1.05-2.02,1.05-3.16s-.34-2.17-1.01-3.04ZM316.67,345.31h13.94c2.45,0,4.33.12,5.62.35,1.82.3,3.34.88,4.56,1.73,1.23.85,2.22,2.04,2.96,3.57.75,1.53,1.12,3.21,1.12,5.04,0,3.14-1,5.8-3,7.98-2,2.18-5.61,3.26-10.84,3.26h-9.48v15.03h-4.89v-36.96ZM365.92,494.48c0,6.29-.71,11.29-2.14,14.99-1.42,3.7-3.99,6.71-7.71,9.03-3.72,2.32-8.59,3.48-14.63,3.48s-10.66-1.01-14.4-3.03-6.39-4.95-7.99-8.78-2.39-9.06-2.39-15.7v-36.18h8.29v36.14c0,5.44.51,9.45,1.52,12.02s2.75,4.56,5.21,5.96c2.46,1.4,5.47,2.09,9.03,2.09,6.09,0,10.44-1.38,13.03-4.14,2.59-2.76,3.89-8.07,3.89-15.93v-36.14h8.29v36.18ZM382.56,382.27l-4.31-11.19h-15.45l-4.06,11.19h-5.19l14.19-36.96h5.27l15.13,36.96h-5.57ZM442.1,520.92l-8.29-13.03c-2.42-3.76-4.41-6.64-5.98-8.63-1.57-1.99-2.97-3.39-4.21-4.19s-2.5-1.35-3.78-1.67c-.94-.2-2.48-.3-4.61-.3h-9.61v27.81h-8.29v-62.62h27.76c5.58,0,9.82.56,12.73,1.69,2.9,1.12,5.23,3.11,6.96,5.96,1.74,2.85,2.61,5.99,2.61,9.44,0,4.44-1.44,8.19-4.31,11.23s-7.32,4.98-13.33,5.81c2.19,1.05,3.86,2.09,5,3.12,2.42,2.22,4.71,5,6.88,8.33l10.89,17.04h-10.42ZM473.64,349.67h-12.23v32.6h-4.89v-32.6h-12.18v-4.36h29.29v4.36ZM516.67,520.92h-39.13v-62.62h8.29v55.23h30.84v7.39ZM516.67,382.27h-27.58v-36.96h26.72v4.36h-21.83v11.32h20.45v4.34h-20.45v12.58h22.69v4.36Z"/>
    <path d="M437.19,481c1.11-1.72,1.67-3.6,1.67-5.62,0-2.96-1.07-5.4-3.22-7.3-2.15-1.91-5.55-2.86-10.19-2.86h-19.82v20.72h17.81c3.79,0,6.75-.39,8.88-1.17,2.14-.78,3.76-2.04,4.87-3.76Z"/>
    <path d="M370.25,349.19c-.47,2.37-1.13,4.72-1.99,7.06l-4.06,10.84h12.53l-3.86-10.24c-1.18-3.11-2.05-5.66-2.62-7.66Z"/>
    <path d="M337.84,361.12c1.33-1.18,1.99-2.83,1.99-4.97,0-1.55-.39-2.87-1.17-3.97-.78-1.1-1.81-1.83-3.09-2.18-.82-.22-2.34-.33-4.56-.33h-9.45v13.21h9.55c3.16,0,5.4-.59,6.73-1.76Z"/>
  </g>
</svg>