<svg xmlns="http://www.w3.org/2000/svg" xmlns:xlink="http://www.w3.org/1999/xlink" width="30" height="30" viewBox="0 0 30 30">
  <defs>
    <clipPath id="clip-path">
      <rect id="Rectangle_15402" data-name="Rectangle 15402" width="30" height="8.55" fill="none"/>
    </clipPath>
  </defs>
  <g id="Group_34927" data-name="Group 34927" transform="translate(17465 24155)">
    <g id="Group_34925" data-name="Group 34925" transform="translate(-17465 -24144)">
      <g id="Group_34924" data-name="Group 34924" clip-path="url(#clip-path)">
        <path id="Path_49217" data-name="Path 49217" d="M18.063,3.256s.034-.681-.881-.729H16.3v1.59h.75s1.012-.014,1.012-.86" transform="translate(-2.363 -0.366)" fill="#fff"/>
        <path id="Path_49218" data-name="Path 49218" d="M18.614,6.326s.034-.812-1.156-.805H16.3V7.2h1.156s1.156.055,1.156-.874" transform="translate(-2.363 -0.8)" fill="#fff"/>
        <path id="Path_49219" data-name="Path 49219" d="M0,8.55H9.074V0H0ZM2.385,1.2H4.54c1.943.179,1.822,1.644,1.822,1.644A1.365,1.365,0,0,1,5.577,4.08,1.6,1.6,0,0,1,6.92,5.615c0,1.741-2.065,1.734-2.065,1.734H2.385Z" fill="#fff"/>
        <path id="Path_49220" data-name="Path 49220" d="M12.237,8.55h9.074V0H12.237ZM14.618,1.2h2.156c1.943.179,1.822,1.644,1.822,1.644a1.365,1.365,0,0,1-.785,1.232,1.6,1.6,0,0,1,1.342,1.535c0,1.741-2.065,1.734-2.065,1.734h-2.47Z" transform="translate(-1.774)" fill="#fff"/>
        <path id="Path_49221" data-name="Path 49221" d="M6.381,6.326s.034-.812-1.156-.805H4.069V7.2H5.225s1.156.055,1.156-.874" transform="translate(-0.59 -0.8)" fill="#fff"/>
        <path id="Path_49222" data-name="Path 49222" d="M24.475,8.55h9.073V0H24.475Zm7.277-1.69a4.9,4.9,0,0,1-4.026.255,3.112,3.112,0,0,1-1.885-2.84,3.128,3.128,0,0,1,2.345-2.982A4.351,4.351,0,0,1,30,1.156a6.58,6.58,0,0,1,1.7.489V2.78a5.182,5.182,0,0,0-2.333-.694,2.293,2.293,0,0,0-2.387,2.19,2.177,2.177,0,0,0,2.36,2.173,4.021,4.021,0,0,0,2.416-.764Z" transform="translate(-3.548)" fill="#fff"/>
        <path id="Path_49223" data-name="Path 49223" d="M5.83,3.256s.034-.681-.881-.729H4.069v1.59h.75S5.83,4.1,5.83,3.256" transform="translate(-0.59 -0.366)" fill="#fff"/>
      </g>
    </g>
    <rect id="Rectangle_15403" data-name="Rectangle 15403" width="30" height="30" transform="translate(-17465 -24155)" fill="none"/>
  </g>
</svg>
